<svg width="20" height="20" viewBox="0 0 20 20" fill="none" xmlns="http://www.w3.org/2000/svg">
<path d="M9.99984 10.8334C10.4601 10.8334 10.8332 10.4603 10.8332 10C10.8332 9.53978 10.4601 9.16669 9.99984 9.16669C9.5396 9.16669 9.1665 9.53978 9.1665 10C9.1665 10.4603 9.5396 10.8334 9.99984 10.8334Z" fill="#767676" stroke="#767676" stroke-linecap="round" stroke-linejoin="round"/>
<path d="M9.99984 4.99998C10.4601 4.99998 10.8332 4.62688 10.8332 4.16665C10.8332 3.70641 10.4601 3.33331 9.99984 3.33331C9.5396 3.33331 9.1665 3.70641 9.1665 4.16665C9.1665 4.62688 9.5396 4.99998 9.99984 4.99998Z" fill="#767676" stroke="#767676" stroke-linecap="round" stroke-linejoin="round"/>
<path d="M9.99984 16.6667C10.4601 16.6667 10.8332 16.2936 10.8332 15.8333C10.8332 15.3731 10.4601 15 9.99984 15C9.5396 15 9.1665 15.3731 9.1665 15.8333C9.1665 16.2936 9.5396 16.6667 9.99984 16.6667Z" fill="#767676" stroke="#767676" stroke-linecap="round" stroke-linejoin="round"/>
</svg>
